<?xml version="1.0" encoding="UTF-8" standalone="no"?>
<svg
   version="1.0"
   viewBox="0 0 1647 1647"
   id="svg2"
   xmlns="http://www.w3.org/2000/svg"
   xmlns:svg="http://www.w3.org/2000/svg">
  <defs
     id="defs2" />
  <path
     style="fill:#000000"
     d="m 847.5,518.7 c -24.27742,4.19685 -10.58228,29.67246 -16.5,42 -18.29004,-4.91614 3.10399,21.97516 -11.725,34.2875 -3.25865,15.54641 -7.57203,48.19229 -18.675,55.4125 5.36065,3.64436 -12.52043,10.16387 -1.5,8.9 -7.01359,3.42307 -14.79564,-1.96149 -11.4,7.2 -9.391,9.60654 -2.91486,20.46757 -9.3,26.3 -4.76608,45.08794 -45.09361,2.85283 -61.4,-11.9 -15.51351,-6.87185 -51.17164,-46.16705 -58.3,-17.1 -13.71232,-11.55952 -48.35056,-19.216 -48.0875,-32.525 -9.82274,2.88221 -27.71791,20.49011 -37.81719,-1.35312 -20.20295,-18.3435 -27.79314,6.82147 -17.99531,18.37812 -2.43006,12.38988 9.21175,24.48143 14.0125,21.975 4.14575,13.75651 22.98093,20.20414 24.5875,35.025 7.167,11.74703 33.51452,29.59331 7.40625,28.1375 11.93948,10.64614 21.36764,25.81137 29.29375,39.2625 17.50847,14.36066 18.82585,20.32494 32.5375,34.425 6.15529,5.52439 9.42106,18.40841 5.4625,19.875 17.14102,20.05965 -17.3726,37.09649 -21.75,55.8625 -10.37166,15.22232 -43.62813,49.70913 -36.675,57.1 10.50632,-4.80438 42.61302,-42.38746 22.525,-12.7 -18.56829,22.95925 -36.00097,49.563 -60.8625,65.65938 -5.68801,19.62682 -30.94417,37.50742 -28.4375,61.87812 26.07388,4.0504 39.33103,-24.2216 63.09375,-31.8906 19.9662,-9.5684 48.38885,-30.17777 64.99375,-30.3094 11.29487,1.61616 -29.63109,31.2715 -5.0875,27.6 5.71586,-16.8571 32.33343,-20.5662 39.5375,-31.5125 13.31612,-7.58527 8.21168,-7.76481 20.5625,-4.1875 3.34335,-8.1051 20.77114,-9.81694 17.8,-3.4 -18.54013,-2.76856 8.28174,13.53652 -7.5375,11.2125 -15.47883,3.20955 4.08456,7.37163 2.0375,3.9875 3.78642,10.3552 21.36986,-19.64577 17.6,3.7 -16.85776,-8.85352 15.83237,4.7692 12.79375,17.9844 0.17379,20.2275 18.59872,39.3741 14.70625,60.3156 9.4474,20.3705 17.78681,42.243 19.1,64.5 -1.72243,22.369 26.78733,36.5059 32.6,7.6 5.48387,-27.757 37.44142,-33.5747 37.2,-64.925 7.91219,-12.8115 14.64453,-37.503 18.6,-51.175 7.32678,-16.5565 7.99896,-49.882 30.6125,-47.1125 9.05119,-0.44291 17.13509,15.3802 22.05156,-0.27969 25.1642,-2.19147 17.40734,19.75359 44.91094,22.60469 23.7268,3.0357 37.8147,24.2725 60.675,29.775 14.1861,12.2054 38.6945,38.8263 48.7,7.9625 -7.6464,-13.5054 -12.7098,-20.8227 2.15,-19.35 13.4412,-3.5026 -13.5625,-23.4252 -8,-34.7 0.7231,-22.55657 -24.1087,-48.71899 -27.1375,-62.5 -16.7063,-24.60422 -37.5207,-47.68334 -43.1578,-77.74375 -11.2955,-17.31664 -29.79518,-28.36253 -3.3797,-37.41875 -2.2002,-16.08858 26.1434,12.84654 17.675,-2.9375 -6.3249,-9.01425 11.6759,-25.92098 17.0875,-40.925 18.0515,-19.99447 29.948,-44.33859 47.8125,-64.175 4.3125,-13.31921 13.422,-17.33598 23.2375,-16.425 -9.2355,-16.06854 16.8964,-2.93874 9.5875,-20.675 16.2241,-11.1855 -4.0147,-25.38624 8.6375,-34.1 -2.6115,-19.8629 -37.7697,5.0371 -52.4641,5.99688 -18.648,-12.48699 -43.7654,26.5261 -67.7984,27.70312 -22.17089,8.99332 -38.80066,21.11934 -64.42344,28.74531 -28.45587,-15.09003 -27.62952,9.24852 -27.07656,9.55469 -12.03701,-1.9123 -3.23107,-12.61526 -15.2,-12.3 3.1974,-10.41886 -7.2137,-15.4094 -12.1125,-26.6125 7.03985,-10.49816 -16.76712,-7.79049 -5.1875,-14.7875 -13.15542,2.56875 0.60575,-5.04756 -9.8,-9.1 8.55764,-9.04882 -14.13996,-28.92254 -8.80938,-47.16719 C 881.30102,583.39738 851.52108,563.6149 867.5,557 c -4.82121,-4.67159 -16.73827,-21.22668 -6.2875,-31.5 -4.85806,-1.11684 -8.91348,-8.14321 -13.7125,-6.8 z"
     id="path1" />
</svg>
