<svg version="1.1" id="Layer_1" xmlns="http://www.w3.org/2000/svg" xmlns:xlink="http://www.w3.org/1999/xlink" x="0px" y="0px"
	 width="100%" viewBox="0 0 1024 1024" enable-background="new 0 0 1024 1024" xml:space="preserve">
<path fill="#000000" opacity="1.000000" stroke="none" 
	d="
M514.284546,751.864807 
	C509.403534,748.185669 507.350891,742.930298 504.389618,738.312988 
	C503.435486,736.825378 502.379578,735.312805 503.302277,733.741577 
	C505.387726,730.190247 503.849274,727.046021 502.766541,723.742188 
	C499.870178,714.904236 497.035461,706.045959 494.230072,697.178650 
	C493.622314,695.257629 493.187317,693.142578 491.676544,691.830261 
	C485.636993,686.584229 487.599854,679.403015 486.795013,672.871094 
	C486.085480,667.112488 483.611938,662.110779 480.219849,657.419556 
	C478.034546,654.397339 475.401520,651.218689 478.138855,647.017822 
	C478.891571,645.862732 477.659454,644.908081 477.221161,643.864075 
	C474.470245,637.311340 470.493561,631.243347 469.587280,623.945068 
	C469.397125,622.413940 468.041412,621.056396 467.392487,619.545959 
	C466.616760,617.740417 465.717438,615.977539 466.844269,613.858215 
	C469.600861,608.673889 467.133667,599.882812 462.272583,596.979675 
	C461.035919,596.241089 459.817322,595.899475 458.526947,596.705261 
	C447.124390,603.825684 435.825470,611.137085 426.263519,620.675781 
	C422.113983,624.815186 416.634216,626.951782 412.469086,631.035217 
	C409.400330,634.043762 405.688293,636.398254 402.248657,639.025513 
	C400.450134,640.399170 399.498352,642.258484 398.739532,644.353088 
	C397.967133,646.485229 396.557465,648.405823 393.949097,647.687988 
	C391.462372,647.003662 391.814972,644.610535 391.814911,642.639954 
	C391.814758,637.529907 395.790588,634.813049 398.724731,631.531006 
	C400.252441,629.822144 402.187775,628.477722 403.930115,626.976318 
	C399.629059,620.998718 398.285187,620.625305 393.039062,624.822388 
	C385.323730,630.994873 376.825806,635.633850 367.905975,639.898926 
	C360.182983,643.591553 353.164337,648.878052 346.167480,653.922241 
	C342.121552,656.838928 336.956970,657.115234 333.212982,661.019409 
	C328.670441,665.756348 323.637360,670.189575 317.956512,673.724609 
	C316.117065,674.869141 314.466797,676.338257 312.242157,676.654175 
	C308.486053,677.187561 306.162567,676.002930 305.879456,671.750427 
	C305.407288,664.658813 308.141266,658.618286 312.163483,653.224060 
	C317.458344,646.123047 322.484772,638.912476 326.182434,630.833923 
	C327.494720,627.966797 330.531708,626.743286 332.441895,624.486938 
	C346.084259,608.372986 359.914612,592.397156 371.339813,574.557373 
	C372.206360,573.204346 373.347229,571.863525 373.104492,569.949951 
	C370.740387,568.229126 369.010895,569.631958 367.536621,571.243896 
	C364.957062,574.064514 362.504395,577.004028 360.064026,579.947937 
	C358.458191,581.885132 356.777679,583.648621 353.911926,584.351318 
	C352.866547,581.757202 353.752167,579.435181 355.146942,577.837524 
	C363.477325,568.295654 368.882080,556.755798 376.670990,546.820496 
	C381.105652,541.163818 383.997101,534.322327 388.137909,528.402100 
	C391.232513,523.977600 395.444672,520.374573 397.433075,515.106323 
	C397.958527,513.714050 398.830933,512.492310 398.646790,510.917694 
	C398.327362,508.185913 398.444092,505.974060 401.268127,504.078247 
	C403.753571,502.409760 402.773468,499.815277 401.037170,497.531921 
	C395.773529,490.609680 388.805450,485.348511 383.120514,478.834381 
	C376.339386,471.064087 368.459412,464.316589 363.121857,455.206390 
	C360.401001,450.562347 356.107117,446.826569 352.429749,442.765839 
	C351.537384,441.780426 350.349579,441.083710 350.424255,439.539124 
	C355.619324,437.077545 355.071198,434.941162 351.777985,430.200409 
	C346.203125,422.175018 337.377136,416.714264 334.048645,406.889404 
	C333.043915,403.923737 330.171783,401.557678 328.039246,399.014069 
	C323.795502,393.952209 319.434723,388.988373 315.198090,383.920685 
	C313.428162,381.803558 311.098572,380.565247 308.770081,379.267303 
	C305.009918,377.171417 303.093506,374.122894 304.370178,369.765900 
	C305.266388,366.707245 303.294281,364.659576 302.034607,362.425598 
	C300.069763,358.941101 298.160889,355.111633 301.153168,351.826294 
	C304.393280,348.268768 308.381622,350.349609 312.205231,351.952881 
	C317.298309,354.088348 320.177155,358.928711 324.867371,361.541687 
	C327.593597,363.060486 329.350403,363.495209 332.343506,361.427734 
	C337.892395,357.594788 344.364655,359.121887 349.944092,361.503876 
	C358.185944,365.022552 365.983215,369.579193 373.986420,373.661316 
	C379.877838,376.666260 380.305634,376.553253 383.403015,370.655945 
	C384.432343,368.696167 385.326294,367.320099 387.968475,368.311707 
	C396.839050,371.641083 405.918945,374.566376 413.824921,379.928741 
	C422.605560,385.884369 431.251709,392.004150 439.421356,398.860443 
	C445.223694,403.729980 451.169037,408.710449 458.201050,411.941650 
	C463.816010,414.521698 466.881470,412.965210 469.234039,407.360382 
	C471.966400,400.850555 475.366547,394.624146 475.672913,387.331665 
	C475.727661,386.028229 476.838318,385.396515 478.237762,385.614929 
	C481.989594,386.200317 483.562195,383.784485 484.929993,380.894592 
	C489.695007,370.826935 492.539398,360.082916 495.852448,349.522278 
	C498.129822,342.262878 500.767792,334.806305 501.103638,327.341553 
	C501.398224,320.792694 501.435944,316.089722 509.185028,314.685913 
	C511.380035,314.288269 510.859955,310.882935 510.300964,308.841431 
	C508.478607,302.186127 507.509094,295.814453 513.002869,290.170807 
	C514.480774,288.652588 512.718140,287.119629 512.008179,285.682739 
	C507.855743,277.278412 508.653351,271.224518 514.646484,265.524017 
	C518.258667,262.088226 519.998352,262.189301 523.287537,265.866211 
	C525.121765,267.916626 526.004578,270.294525 526.710144,272.939331 
	C529.187073,282.224304 531.898987,291.447266 534.602356,300.670105 
	C534.865723,301.568756 535.501892,302.650024 536.276001,303.061737 
	C543.721863,307.021820 544.778015,314.343781 546.387939,321.511261 
	C548.554932,331.158661 549.708496,341.000854 554.185303,350.158783 
	C556.505554,354.905182 557.010376,360.679565 558.065979,365.990173 
	C559.507446,373.241974 564.131409,378.865356 566.449585,385.585815 
	C567.584656,388.876282 569.064880,392.047394 570.208923,395.335175 
	C570.841248,397.152344 571.682983,398.586273 574.136536,399.613007 
	C573.674255,394.274109 576.479431,394.769806 579.704468,396.005951 
	C582.552612,397.097656 584.824402,397.381927 586.835144,394.005676 
	C589.160522,390.101318 593.166870,391.747314 596.353943,392.839844 
	C604.127258,395.504608 611.460876,394.550293 618.469360,390.722412 
	C625.469482,386.899139 633.040039,384.136139 639.590820,379.495758 
	C647.274353,374.052887 656.309631,371.359741 664.571533,367.083557 
	C675.538879,361.407043 686.366882,355.582855 695.673279,347.348419 
	C699.588379,343.884338 703.260864,344.303040 706.605103,347.869751 
	C708.716125,350.121094 710.277100,349.607147 712.606201,348.160767 
	C719.103821,344.125732 725.860474,340.510223 732.412720,336.559723 
	C737.284241,333.622589 742.029541,335.042358 746.145874,337.490662 
	C749.999512,339.782776 748.567627,344.500763 746.642700,346.799530 
	C744.184998,349.734589 744.915771,351.848389 746.127625,354.354065 
	C748.365173,358.980499 748.457825,362.962738 743.581787,366.027008 
	C742.798035,366.519531 741.740906,367.735748 741.887024,368.368927 
	C743.257263,374.306366 738.306519,374.594696 735.158997,377.220398 
	C729.628052,381.834412 724.239136,387.358124 720.859497,393.617798 
	C716.938721,400.879700 710.771179,406.211456 706.822815,413.375549 
	C696.318909,432.434021 681.426331,448.814545 672.491516,468.846497 
	C670.974487,472.247620 666.934998,476.492615 674.098633,479.291962 
	C676.209656,480.116852 675.172180,482.979797 672.731201,483.672424 
	C669.407349,484.615692 666.368042,483.859467 664.387573,480.797974 
	C662.336060,477.626740 660.533997,477.874023 658.189758,480.579285 
	C655.803833,483.332550 653.098572,485.727295 651.372131,489.094208 
	C650.109070,491.557281 649.751770,493.789948 651.972656,495.316132 
	C661.385254,501.784271 664.187744,511.974548 667.237366,521.975891 
	C669.079773,528.018250 672.531677,533.104980 676.071472,538.112000 
	C682.394409,547.055908 689.160645,555.722351 695.368896,564.706543 
	C701.742737,573.930420 707.601807,583.585632 713.578674,593.119812 
	C714.002075,593.795105 714.439209,594.748962 714.291687,595.451904 
	C712.158386,605.614380 719.595398,611.897705 723.954773,619.403198 
	C725.285706,621.694641 726.762085,623.968811 728.533325,625.923218 
	C732.093689,629.851746 729.482666,634.699951 730.851074,638.843079 
	C730.174011,640.310242 728.685852,640.441528 727.568054,641.088074 
	C721.645691,644.513428 721.207947,646.140137 724.741577,652.050720 
	C724.912109,652.335938 725.140137,652.591797 725.278259,652.890503 
	C727.247559,657.147827 723.578796,662.974976 716.806335,666.359924 
	C710.780029,669.372070 706.446289,668.637146 704.000488,663.932495 
	C700.849976,657.872070 695.548340,654.043518 689.851501,651.051514 
	C685.053650,648.531555 680.529358,644.700623 674.180481,646.040710 
	C671.811157,646.540771 669.789978,643.954956 667.831726,642.439636 
	C662.119812,638.019714 657.591919,631.976807 650.264709,629.759277 
	C649.561523,629.546509 648.891479,628.767090 648.491394,628.083740 
	C645.995972,623.820801 643.133179,620.777832 637.684143,619.543884 
	C634.703674,618.869019 631.782349,615.545837 628.415039,614.187988 
	C625.664978,613.079102 622.827148,612.485657 619.702087,612.492676 
	C612.834534,612.508057 606.171082,611.088379 600.124512,607.540161 
	C596.169495,605.219177 591.477173,605.243347 587.309875,603.548096 
	C585.977417,603.005981 584.413330,603.639038 583.939575,605.005127 
	C581.342224,612.495239 576.024902,618.506409 574.597107,626.908142 
	C572.139282,641.372070 568.284424,655.711121 563.693298,669.667419 
	C559.363831,682.828064 555.090210,696.023621 550.761230,709.188599 
	C549.101379,714.236572 545.580017,717.159668 541.529114,718.938538 
	C536.076782,721.333008 534.924988,726.200806 533.314636,730.608826 
	C530.659241,737.877441 527.311035,744.602966 522.139954,750.351562 
	C520.096252,752.623474 517.587219,753.694519 514.284546,751.864807 
M632.573853,579.910278 
	C634.612183,581.877686 636.643372,583.852600 638.690125,585.811218 
	C645.408752,592.240356 652.052673,598.764282 661.169922,601.850220 
	C662.755676,602.386963 664.417358,603.391724 665.877258,602.188232 
	C667.460510,600.883118 666.437500,599.051880 665.976257,597.526306 
	C664.869568,593.866272 663.049744,590.335632 662.501831,586.608093 
	C660.338623,571.890320 652.813293,559.458374 646.173462,546.612183 
	C643.528259,541.494385 640.267639,537.034729 635.404968,533.804138 
	C634.016724,532.881836 633.339966,531.277466 632.614258,529.740967 
	C630.155151,524.534363 628.174316,518.873840 621.598633,517.207947 
	C620.996826,517.055420 620.208679,515.978516 620.216248,515.339233 
	C620.285095,509.522491 615.024963,507.596558 611.584167,506.218445 
	C606.242859,504.079193 606.453674,501.384766 607.306396,496.985352 
	C607.882202,494.014252 610.164978,491.443848 608.845825,487.907288 
	C606.255066,480.961792 608.633118,476.742065 615.873596,474.718903 
	C617.679810,474.214264 618.612061,472.995819 619.597168,471.642151 
	C624.468811,464.947418 629.930908,458.709839 633.801392,451.264648 
	C642.236450,435.039062 654.527405,420.974548 660.715332,403.381042 
	C659.882812,402.319763 658.588013,402.123657 657.585144,402.631470 
	C650.942993,405.995148 643.989746,408.859802 638.311523,413.862488 
	C635.241211,416.567505 632.689453,420.177155 629.188232,422.016541 
	C619.376770,427.171082 612.674377,436.470795 602.672241,441.264801 
	C601.822937,441.671875 601.059998,442.518646 600.556885,443.343994 
	C598.410583,446.865112 595.161987,449.170471 591.956299,451.576538 
	C588.788086,453.954468 585.978027,456.709229 583.153198,459.520966 
	C578.584473,464.068481 574.419678,469.470978 567.362915,470.919312 
	C563.618835,471.687775 561.781433,469.435608 559.781494,467.314209 
	C558.295898,465.738434 559.423157,464.325012 560.614929,462.980347 
	C564.971680,458.064758 562.823120,449.777130 556.219238,447.578186 
	C552.923706,446.480896 551.476318,444.341492 549.945129,441.716675 
	C545.585999,434.244354 546.436462,425.575073 545.082092,417.582794 
	C543.085632,405.801819 539.920410,394.218811 539.245850,382.042999 
	C538.685486,371.928650 536.040955,361.485565 530.942688,352.151215 
	C530.179688,350.754272 530.346802,348.881134 529.785095,347.336823 
	C527.848633,342.012817 529.446655,335.805023 525.101440,330.696716 
	C524.516418,337.558197 519.820129,342.661469 518.685425,349.513611 
	C516.797974,360.911224 513.924072,372.221741 510.444580,383.246735 
	C508.750000,388.616180 507.798920,394.223633 505.727692,399.363983 
	C503.973328,403.718048 503.280304,407.648743 503.717499,412.330292 
	C504.171265,417.189514 501.367035,422.103271 503.236084,427.172302 
	C503.393555,427.599396 502.820648,428.435913 502.397827,428.915283 
	C497.842224,434.080566 498.468048,439.578766 501.353577,445.183899 
	C503.652100,449.648712 501.025513,458.525116 496.124023,459.285278 
	C491.644806,459.979980 489.720367,462.472321 488.111237,465.676636 
	C485.671692,470.534454 480.676025,471.579437 476.596008,473.900940 
	C473.471649,475.678772 473.410278,470.793884 471.338470,470.674194 
	C466.295593,470.382843 467.348785,467.542389 468.197083,464.450928 
	C468.964752,461.653259 468.456207,459.190948 464.990967,459.118042 
	C461.291321,459.040222 459.010315,456.713867 456.267731,454.828705 
	C451.525665,451.569183 450.255676,445.650970 446.064117,442.128265 
	C439.618652,436.711273 432.170624,433.227264 424.313507,430.074890 
	C417.039032,427.156250 410.422760,422.833466 402.535919,420.972137 
	C394.850250,419.158264 388.170105,414.229614 380.360016,412.443115 
	C376.410065,411.539581 372.895233,409.924347 369.727356,407.310822 
	C366.740356,404.846466 363.309235,404.186584 359.630493,406.136749 
	C359.947510,411.101929 364.142517,413.100067 366.420563,416.407379 
	C372.285889,424.922760 379.691010,432.058807 386.436035,439.786652 
	C398.383972,453.475616 413.970123,463.871735 422.996338,480.229858 
	C423.734314,481.567200 425.416412,482.467926 426.801422,483.348907 
	C432.144958,486.747711 432.589294,488.559631 430.054962,494.461914 
	C428.714691,497.583313 426.694214,500.845947 428.074829,504.392334 
	C430.553253,510.758759 429.953491,516.072876 426.943970,522.698181 
	C418.816101,540.591431 406.310730,555.159119 394.368744,570.263428 
	C389.832825,576.000488 385.484772,581.891113 381.211243,587.827087 
	C380.038910,589.455505 379.429840,591.510681 381.327484,593.270996 
	C383.005188,594.827332 384.837158,594.891296 386.857208,593.913391 
	C393.824188,590.540527 401.147461,587.752869 407.689270,583.699951 
	C412.985016,580.419006 419.048126,578.683350 424.509827,577.176941 
	C433.077606,574.813782 441.462555,571.955566 449.925873,569.307617 
	C452.944244,568.363281 454.413483,566.555176 453.503204,563.309753 
	C452.871521,561.057678 453.071564,559.138306 455.025208,557.461731 
	C461.580292,551.836365 469.935120,553.304138 473.983032,560.795288 
	C476.669830,565.767578 479.728851,569.841980 486.504730,569.730835 
	C490.143860,569.671143 492.327728,572.546509 491.365295,576.805908 
	C490.479645,580.725403 488.564789,583.754517 485.139618,585.075623 
	C496.202179,621.840332 505.261536,658.936523 524.651733,692.434021 
	C526.602661,691.683838 526.586792,689.853455 527.033691,688.096680 
	C528.349976,682.922546 527.628601,677.554077 529.190430,672.325317 
	C531.328552,665.167297 533.734009,658.120483 536.056641,651.030762 
	C539.200317,641.434937 541.447021,631.547729 544.167480,621.810364 
	C548.776917,605.312134 552.423218,588.690979 551.746704,571.385803 
	C551.608948,567.862305 550.692200,565.021606 548.166565,562.437195 
	C544.263245,558.442993 544.687256,557.098633 549.773560,555.238525 
	C550.495972,554.974304 551.481689,554.986084 551.680908,553.750061 
	C549.387329,550.887146 545.384766,551.152039 542.599121,549.062134 
	C539.912720,547.046692 539.428833,545.315857 542.600220,543.399475 
	C547.856567,540.223328 553.258667,538.831482 559.203613,541.546875 
	C563.705933,543.603394 568.652405,544.432129 573.363281,543.490906 
	C579.371826,542.290405 584.240051,544.309570 588.880981,547.326904 
	C594.721008,551.123718 600.762878,554.814087 605.858398,559.487244 
	C609.902039,563.195740 615.710693,563.046570 619.367126,567.472534 
	C623.038757,571.916870 627.772522,575.483704 632.573853,579.910278 
z"/>
</svg>