<?xml version="1.0" encoding="UTF-8" standalone="no"?>
<svg
   version="1.0"
   viewBox="0 0 1647 1647"
   id="svg2"
   sodipodi:docname="armaan-logo-filled-1-red.svg"
   inkscape:version="1.4.1 (1:1.4.1+202503302257+93de688d07)"
   xmlns:inkscape="http://www.inkscape.org/namespaces/inkscape"
   xmlns:sodipodi="http://sodipodi.sourceforge.net/DTD/sodipodi-0.dtd"
   xmlns="http://www.w3.org/2000/svg"
   xmlns:svg="http://www.w3.org/2000/svg">
  <defs
     id="defs2" />
  <sodipodi:namedview
     id="namedview2"
     pagecolor="#ffffff"
     bordercolor="#000000"
     borderopacity="0.25"
     inkscape:showpageshadow="2"
     inkscape:pageopacity="0.0"
     inkscape:pagecheckerboard="0"
     inkscape:deskcolor="#d1d1d1"
     inkscape:zoom="0.95090555"
     inkscape:cx="876.5329"
     inkscape:cy="893.35897"
     inkscape:window-width="1854"
     inkscape:window-height="1008"
     inkscape:window-x="66"
     inkscape:window-y="35"
     inkscape:window-maximized="1"
     inkscape:current-layer="svg2" />
  <path
     style="fill:#000000"
     d="m 909.3,694.4 c -0.8,1.6 -0.4,3 1.6,6.1 1.4,2.2 3.5,4.7 4.6,5.7 2,1.6 2,1.6 -0.5,2.1 -3.9,0.7 -9.3,0.7 -8.6,0 0.3,-0.3 0.1,-1.2 -0.5,-2 -0.8,-0.8 -0.8,-1.3 -0.1,-1.3 0.6,0 1.2,0.6 1.5,1.2 0.8,2.3 2,0 1.3,-2.6 -0.4,-1.7 -1.1,-2.3 -2.1,-2 -1.2,0.5 -1.4,0 -0.9,-2.5 0.5,-2.4 0.3,-3.1 -1,-3.1 -0.9,0 -1.6,-0.5 -1.6,-1 0,-0.6 0.7,-1 1.5,-1 0.8,0 1.5,-0.7 1.5,-1.5 0,-0.8 -0.8,-1.5 -1.7,-1.5 -1.5,0 -1.5,-0.1 0.2,-1.3 1.6,-1.2 2.1,-1.1 3.8,0.6 1.5,1.5 1.7,2.4 1,4.1"
     id="path3" />
  <path
     style="fill:#d40000"
     d="m 847.5,518.7 c -1.1,0.3 -2.7,1 -3.5,1.7 -1.5,1.2 -5.3,3 -8.1,3.9 -1.1,0.4 -1.5,1.4 -1.1,3.5 0.3,2.4 -0.2,3.7 -2.3,5.8 -2.3,2.3 -2.5,3 -1.6,4.8 0.7,1.2 1,4.5 0.8,7.3 -0.3,4 -0.1,5.3 0.9,5.3 0.8,0 1.4,0.6 1.4,1.4 0,0.8 0.3,2.1 0.6,2.9 0.3,1 -0.2,1.8 -1.5,2.2 -1.4,0.4 -2.1,1.5 -2.1,3.2 0,2.4 -0.1,2.5 -1.7,1.1 -2.5,-2.2 -4.5,-2.7 -6.5,-1.6 -1.9,0.9 -2.5,3.8 -0.8,3.8 0.6,0 1,0.9 1,1.9 0,1 0.6,2.1 1.4,2.4 0.8,0.3 1.6,2.4 1.8,4.9 0.3,3.3 -0.1,5.1 -1.9,7.9 -1.3,2 -2.5,4.7 -2.7,6 -0.1,1.3 -0.8,3.5 -1.5,4.8 -0.8,1.5 -1.1,4.3 -0.9,7.3 0.5,4.5 0.3,5 -1.8,5.9 -2.7,1 -3,1.9 -1.2,3.7 0.9,0.9 0.9,1.7 0.1,3.4 -0.6,1.3 -1.1,3 -1.1,3.8 -0.1,3.8 -1.7,9.7 -3.3,12.2 -1.1,1.4 -1.9,4 -1.9,5.7 0,1.7 -0.9,4.6 -2,6.6 -1.1,2 -2,4.5 -2,5.6 0,1.1 -0.6,2.7 -1.4,3.4 -1.2,1.2 -1.6,1.2 -2.6,-0.1 -1.6,-1.8 -2.3,-1.3 -1.4,1 0.3,0.9 1.2,1.6 2,1.6 0.8,0 1.4,0.4 1.4,0.9 0,1.4 -2.7,2 -3.8,0.9 -0.8,-0.8 -1.3,-0.7 -1.8,0.5 -0.3,0.9 -1.1,1.7 -1.8,1.7 -0.6,0 -1.2,1 -1.3,2.2 l -0.2,2.3 2,-2.4 c 2.4,-2.9 3.3,-2.3 2,1.2 -1.5,3.9 -3.2,4.3 -5.6,1.4 -2.4,-3.1 -5.3,-3.6 -5.1,-1 0,1 -0.4,1.7 -1.1,1.6 -0.6,-0.1 -1.3,0.3 -1.6,1.1 -0.3,0.8 0.3,1.2 1.5,1.2 3,-0.1 3.4,2.2 0.5,2.9 -2.5,0.7 -4.2,4.2 -3.8,7.7 0.1,1 -0.3,1.8 -1,1.8 -0.7,0 -0.9,1 -0.7,2.4 0.3,1.5 0,2.7 -0.8,3 -0.8,0.3 -1.4,1.7 -1.4,3.2 0,1.9 0.4,2.5 1.5,2 0.9,-0.3 1.5,0 1.5,0.9 0,0.9 -0.8,1.4 -2.2,1.2 -2.1,-0.2 -2.3,0.3 -2.4,4.1 0,2.4 -0.6,4.8 -1.2,5.4 -0.7,0.7 -1.2,2 -1.2,2.9 0,1 -1,3.4 -2.1,5.4 -1.2,2 -1.9,3.8 -1.6,4.1 0.3,0.3 -0.3,1.4 -1.4,2.5 -3.5,3.5 -8.8,2.4 -21.2,-4.4 -1.6,-0.8 -6.4,-4.9 -10.8,-9 -4.3,-4.2 -11,-9.9 -14.9,-12.8 -3.8,-2.8 -7,-5.6 -7,-6 0,-0.5 -1.5,-1.5 -3.4,-2.3 -1.9,-0.8 -4.5,-2.5 -5.8,-3.8 -5.6,-5.6 -25.1,-16.8 -33.9,-19.4 -2.6,-0.8 -5.5,-2.1 -6.4,-3 -2.8,-2.8 -5.4,-0.8 -7.2,5.6 l -1.6,5.8 -7.6,-4 c -4.2,-2.2 -10.1,-5.7 -13.1,-7.7 -8.5,-5.8 -20.1,-11.9 -24,-12.6 -1.9,-0.4 -4.4,-1.3 -5.4,-2.1 -1.9,-1.4 -1.9,-1.4 0.4,-3.9 1.8,-1.9 2.1,-2.8 1.2,-3.7 -0.8,-0.8 -2,-0.4 -4.7,1.6 -1.9,1.5 -3.5,3.1 -3.5,3.6 0,0.4 -3,2.2 -6.6,3.9 l -6.5,3.1 -4,-2.1 c -2.2,-1.1 -5.6,-3.8 -7.6,-6 -5.2,-5.7 -14.2,-10.1 -20.1,-9.8 -6.4,0.4 -7.9,2.2 -7.1,8.4 0.9,6.7 1.6,9.5 2.9,10.9 0.5,0.7 0.6,1.7 0.2,2.1 -0.4,0.5 0,0.6 1,0.2 1.4,-0.5 1.5,-0.2 0.6,2.6 -1.6,4.7 -1.6,9.3 0,8.9 0.7,-0.1 1.2,0.3 1.1,1 -0.1,0.7 0.6,3.1 1.7,5.4 1.9,4.1 1.9,4.1 3.7,2 1,-1.2 1.5,-1.5 1.2,-0.8 -0.4,0.8 0.2,2 1.5,2.9 1.7,1.2 1.9,1.7 0.9,2.4 -1.1,0.7 -1.2,1 -0.1,2.1 1.1,1.1 1.3,1 1,-0.1 -0.2,-0.8 0.6,-1.7 1.6,-1.9 1.5,-0.3 1.8,0 1.4,1.5 -0.6,2.3 1.6,5.8 3.1,4.9 0.6,-0.4 1.8,0.3 2.8,1.4 1,1.1 3.1,3.4 4.7,5.1 2.3,2.5 2.6,3.3 1.5,4 -1.1,0.7 -1,0.9 0.5,0.9 2.3,0 8.3,6.2 11.1,11.3 1.6,3.1 1.7,3.9 0.7,4.6 -1.1,0.7 -1.1,0.9 0.2,1.4 0.9,0.4 2.2,1.9 2.9,3.4 0.6,1.5 3.4,4.9 6,7.6 2.6,2.7 5.9,6.6 7.4,8.8 1.4,2.1 3,3.9 3.4,3.9 0.5,0 0.9,0.7 0.9,1.5 0,1.2 -0.6,1.4 -2.7,0.8 -3.7,-1 -9.3,-0.7 -10.6,0.6 -1.3,1.3 4,6.4 5.9,5.7 1.5,-0.6 3.8,2.9 2.9,4.3 -0.9,1.5 0.7,4.2 3,5.1 2.2,0.8 7,9 7,12 0,0.9 0.8,1.4 1.9,1.2 2.1,-0.4 6.6,3.4 6.6,5.5 0,0.8 0.4,1.2 0.8,0.9 0.7,-0.4 1.1,1.3 1.3,6.1 0.1,1.6 0.7,2.3 2.2,2.3 2.9,0 13.1,10.6 12.2,12.8 -0.3,0.9 -0.3,1.3 0.1,0.9 0.4,-0.4 1.8,0.2 3,1.4 1.5,1.4 2.9,1.9 4,1.5 1.7,-0.6 1.7,-0.6 0.1,1.2 -2,2.2 -2.2,4.3 -0.4,3.6 1.3,-0.4 3.1,1.1 9.9,8.3 1.4,1.6 1.9,3.1 1.6,5.3 -0.5,3 -0.4,3.1 4.2,3.4 0.8,0.1 1.5,0.9 1.5,1.9 0,1 0.7,2.2 1.4,2.7 2.4,1.4 2,4.8 -0.5,5.4 -1.3,0.4 -2.8,1.5 -3.4,2.6 -1.2,2.3 -0.7,2.5 2.1,1 1.8,-1 1.9,-0.7 1.9,3.6 0,3.1 0.6,5.4 1.7,6.6 2.1,2.3 2.8,8.8 0.9,8.8 -0.7,0 -1.9,1.2 -2.6,2.7 -0.8,1.6 -4.3,5.8 -7.7,9.5 -4,4.2 -6.3,7.5 -6.3,9 0,1.5 -1.8,3.9 -5.5,7.1 -4.7,4.1 -5.3,5.1 -4.5,6.7 0.8,1.6 0.6,2.2 -1.4,3.5 -1.3,0.9 -2.6,2.9 -2.9,4.5 -0.4,1.9 -2.3,4.2 -5.6,6.7 -3.8,2.9 -5.7,5.4 -8.2,10.8 -1.9,4.2 -4.7,8.3 -6.9,10.2 -4.1,3.6 -10,12.1 -10,14.5 0,0.8 -1.3,2.7 -3,4.1 -2.6,2.3 -4.2,6.7 -2.5,6.7 1.6,0 6.4,-3.3 9.4,-6.4 1.9,-2 4.1,-3.6 4.8,-3.6 0.7,0 3.3,-2 5.9,-4.5 2.5,-2.5 4.9,-4.5 5.3,-4.5 0.4,0 1.3,-1.1 1.9,-2.5 0.6,-1.4 1.7,-2.5 2.3,-2.5 0.6,0 1.9,-1 3,-2.3 l 1.9,-2.2 -1.1,3.2 c -0.6,1.8 -1.6,3.3 -2.3,3.3 -0.7,0 -1.8,1.6 -2.5,3.6 -0.7,2 -2.8,5.3 -4.7,7.4 -1.9,2.1 -3.4,4.2 -3.4,4.8 0,1.4 -17.5,22.1 -22.3,26.2 -0.9,0.8 -3.6,3.8 -5.9,6.6 -12.5,14.9 -14.6,17.3 -18.4,20.2 -2.3,1.8 -4.9,3.2 -5.8,3.2 -2.3,0 -8.4,5.8 -7.1,6.8 1.5,1.1 1.7,3.2 0.4,4.8 -0.6,0.8 -0.9,1.4 -0.6,1.4 0.7,0 -10.8,16.3 -14.9,21.3 -6.4,7.7 -11.1,23.6 -8.5,28.5 2.2,4.1 12.2,2 18.1,-3.7 2.2,-2.1 7.7,-4.2 9.5,-3.5 2,0.8 4.5,-1.3 4.5,-4 0,-4 16.9,-15.6 20.6,-14.2 0.8,0.3 1.8,-0.3 2.3,-1.3 0.6,-1 2.4,-2.4 4.2,-3.1 3.4,-1.5 15.5,-9.1 17.9,-11.4 0.9,-0.8 3.8,-2.1 6.5,-2.8 2.8,-0.7 5.2,-1.5 5.5,-1.8 0.7,-0.9 7.4,-4.8 8.2,-5 4.2,-0.5 7,-1.5 8.8,-3.2 1.1,-1.1 2.8,-1.7 3.6,-1.4 1,0.4 3.1,-1 5.8,-3.8 2.4,-2.4 5.2,-4.9 6.4,-5.5 2.2,-1.2 5,-1.5 3.9,-0.5 -0.7,0.8 4.7,5.4 6.3,5.4 1,0 1,0.4 0,1.5 -0.7,0.9 -1.9,1.4 -2.6,1.1 -1.5,-0.6 -9.1,6.8 -11.9,11.5 -1.5,2.5 -1.9,4.8 -1.7,8.6 0.4,6.2 1.1,6.4 7.1,2.5 3.3,-2.1 3.9,-2.9 2.8,-3.6 -1.2,-0.8 -1.1,-1.3 0.7,-3.4 1.2,-1.3 3.8,-3.3 5.9,-4.3 2,-1.1 3.7,-2.3 3.7,-2.8 0,-0.5 1.4,-1.4 3.1,-2.2 1.8,-0.7 4.8,-2.8 6.8,-4.6 2,-1.9 4.9,-4.1 6.5,-5 2.6,-1.4 3,-1.4 3.8,0.1 1.4,2.5 3.8,1.9 3.8,-0.9 0,-2.6 4.5,-7.9 6,-7 0.4,0.3 1.1,-0.1 1.3,-0.7 q 0.6,-1.5 0.6,0 c 0.1,1.6 1.8,0 3.7,-3.3 1.2,-2.2 4.4,-3.3 4.4,-1.5 0,0.6 -0.4,0.9 -0.9,0.6 -0.5,-0.3 -1.4,0.1 -2.1,0.9 -1,1.2 -1,1.5 0.1,1.6 0.8,0 2.9,0.2 4.7,0.5 1.7,0.2 3.2,-0.1 3.2,-0.6 0,-0.6 0.5,-1 1,-1 0.6,0 1,0.7 1,1.5 0,0.9 0.6,1.2 1.5,0.9 0.8,-0.4 1.5,-1.4 1.5,-2.4 0,-1.1 1,-2 2.5,-2.4 1.5,-0.4 2.7,-1.6 3.1,-3 0.8,-3.5 3.3,-4.1 4.4,-1.1 0.5,1.4 1.8,2.5 2.8,2.5 1,0 2.7,0.7 3.8,1.5 1.6,1.2 1.7,1.4 0.2,1.5 -0.9,0 -1.8,-0.4 -2,-0.9 -0.4,-1.3 -8.8,1 -8.8,2.4 0,1.7 3.8,3.7 4.6,2.4 0.4,-0.8 1,-0.5 1.7,0.7 0.7,1.3 0.7,1.9 -0.1,2.2 -1.5,0.5 -1.6,3.2 -0.1,3.2 0.5,0 0.8,0.4 0.4,1 -0.4,0.6 -1.4,0.5 -2.9,-0.1 -1.7,-0.8 -3,-0.8 -4.6,0.1 -1.8,0.9 -2.4,0.9 -3,0 -1,-1.7 -2.2,0.4 -1.4,2.5 0.4,0.9 1.3,1.4 2.1,1 1.2,-0.4 1.4,0 1,1.5 -0.3,1.3 0,2 0.9,2 0.8,0 1.7,-1.4 2.1,-3.1 0.4,-2.1 1,-2.8 2,-2.5 0.8,0.4 1.7,0.6 1.9,0.6 0.2,0 0.4,0.4 0.4,1 0,0.5 -0.8,0.7 -1.7,0.3 -1.7,-0.5 -1.7,-0.5 -0.1,1.2 1.3,1.4 2,1.6 3.1,0.6 0.8,-0.6 2.3,-0.8 3.2,-0.4 1.3,0.4 1.6,0.3 1.1,-0.6 -0.6,-0.8 -0.2,-1.1 1,-0.9 1.3,0.2 2,-0.4 2.2,-1.7 0.3,-2 4.9,-6.1 5.9,-5.2 0.2,0.3 0.5,2.5 0.6,4.9 0,2.3 0.6,4.6 1.1,5 0.7,0.5 0.5,0.8 -0.5,0.8 -2.1,0 -3.9,-2 -3.2,-3.6 0.6,-1.6 -2.2,-2 -3.1,-0.5 -0.9,1.4 0.4,4.1 2,4.1 0.8,0 1.4,0.4 1.4,0.8 0,1.2 5.1,1.3 6.6,0.1 0.9,-0.7 1.4,-0.4 1.9,1.3 0.4,1.3 2.4,5.8 4.5,10 4.3,8.6 5.8,13.8 4.1,13.8 -1.8,0 -1.3,4.7 0.9,8.7 1.1,2.1 2,4.3 2,5 0,0.7 0.4,1.3 0.9,1.3 1.9,0 7,9.7 7.6,14.5 0.4,2.7 1.2,6.4 1.8,8.2 0.8,2.5 0.7,3.6 -0.6,5.7 -2.3,3.5 -2.1,6.3 0.7,8.9 1.3,1.2 2.7,3.3 3.1,4.7 0.4,1.4 2.1,5.2 3.6,8.4 1.6,3.3 2.9,7.4 2.9,9.2 0,1.8 0.5,3.6 1.1,4 0.8,0.4 0.8,0.8 0,1.3 -0.7,0.4 -0.2,2.5 1.4,6 1.4,2.9 3.9,9.8 5.6,15.3 2.7,8.8 3,10.3 1.8,12.5 -0.8,1.5 -0.9,2.7 -0.4,3.1 0.6,0.4 1,3.2 1,6.2 0.1,3.1 0.9,7.1 1.8,9.1 1.5,3.1 2.3,3.6 5,3.5 1.9,0 3.3,0.5 3.3,1.2 0.1,0.6 0.2,1.8 0.3,2.5 0.1,0.9 1.5,1.4 3.8,1.5 2,0.1 4,0.7 4.5,1.4 0.6,1 0.8,0.9 0.8,-0.4 0,-0.9 0.9,-2 2,-2.3 1.1,-0.4 1.8,-1 1.5,-1.4 -0.2,-0.5 0.9,-2.3 2.5,-4.1 1.6,-1.8 4.3,-6.1 6.1,-9.6 1.7,-3.5 3.5,-6.4 4,-6.4 0.5,0 0.9,-1.6 0.9,-3.5 0,-1.9 0.4,-3.5 0.9,-3.5 0.9,0 3.8,-6.8 4.3,-10.5 0.3,-1.5 1,-1.9 3.1,-1.7 1.9,0.3 3.9,-0.7 7,-3.2 2.4,-2 4.8,-3.6 5.3,-3.6 0.8,0 2.6,-3.6 6.9,-13.7 0.9,-2.3 1.4,-4.6 1,-5.2 -0.3,-0.6 0.3,-2.3 1.5,-3.8 1.2,-1.6 2,-3.8 1.8,-5.7 -0.2,-3.4 0.8,-5.9 2.2,-5.1 1.5,0.9 2.8,-2 3.5,-8.3 0.4,-3.4 1.1,-6.5 1.6,-6.8 0.5,-0.3 0.9,-1.6 0.9,-2.9 0,-1.3 0.8,-3 1.8,-3.7 1.9,-1.4 4.5,-9.5 4.6,-14.3 0.1,-1.7 0.9,-3.8 1.9,-4.8 1.3,-1.3 1.7,-2.7 1.3,-4.3 -0.5,-1.7 -0.2,-2.4 0.9,-2.4 1.8,0 1.9,-1.2 0.4,-2.7 -0.9,-0.9 -0.8,-1.6 0.4,-2.8 0.9,-0.8 1.9,-3.2 2.2,-5.3 0.3,-2 1,-4.4 1.6,-5.2 2.5,-4 4.4,-10.1 5.9,-19.7 0.8,-5.2 1.6,-7.4 2.8,-7.7 1,-0.3 3,-1.7 4.5,-3.2 2.2,-2 3.4,-2.4 5.9,-1.9 q 3,0.75 2.4,-0.3 c -0.9,-1.5 1.3,-2.6 2.7,-1.3 1.4,1.1 3.2,0.3 3.9,-1.9 0.3,-0.9 1.2,0.1 2.3,2.8 1.9,4.1 3.4,4.9 8.3,4.3 1.8,-0.3 4.3,1.9 3.6,3 -0.3,0.5 -0.1,0.9 0.5,0.9 1.7,0 2.2,-1.9 0.9,-3.9 -1,-1.7 -0.9,-2.2 1.1,-3.8 3,-2.5 15.1,-2.4 17.6,0 0.8,0.9 2.1,1.4 2.9,1.1 0.7,-0.3 1.9,0.2 2.6,1.1 0.8,1 0.9,1.5 0.2,1.5 -0.6,0 -0.9,0.6 -0.6,1.4 0.3,0.7 -0.2,2.1 -1.1,3 -1.5,1.5 -1.4,1.6 1.3,1.6 1.9,0 4.1,1 6,2.7 1.7,1.6 4.4,2.9 6.2,3.1 1.8,0.1 4.5,1.2 6.1,2.3 1.6,1.1 2.9,1.7 2.9,1.3 0,-0.4 0.8,0 1.8,0.9 1,0.9 3.9,1.7 6.7,1.9 3.4,0.2 5.4,0.9 6.3,2.1 1,1.3 2.2,1.6 4.6,1.2 2.8,-0.6 3.8,-0.1 8.4,4.3 2.8,2.7 5.3,4.7 5.5,4.5 0.3,-0.2 1.9,1.3 3.7,3.4 5.1,5.8 8.6,7.6 13.3,6.9 3.2,-0.6 4.5,-0.2 7.2,1.9 1.9,1.4 3.8,2.5 4.4,2.5 0.6,0 1.1,0.4 1.1,0.9 0,0.8 3.9,2.2 5.5,2.1 0.3,-0.1 2.3,1.7 4.5,4 2.1,2.2 4.3,4 4.9,4 0.6,0 1.1,0.5 1.1,1.1 0,0.6 1.4,2.2 3,3.6 1.7,1.4 3.7,3.8 4.5,5.4 0.8,1.5 3,3.5 4.9,4.4 3.2,1.5 3.8,1.5 8.6,-0.2 6.1,-2.1 12.5,-7.6 11.6,-9.8 -0.3,-0.9 0.1,-1.8 0.9,-2.1 2.4,-1 1.7,-4.7 -1.5,-8.1 -1.7,-1.8 -3,-4.3 -3,-5.8 0,-1.4 -0.7,-3.7 -1.6,-5.1 -1.3,-1.8 -1.4,-2.8 -0.6,-3.6 0.8,-0.8 1.4,-0.4 2.1,1.5 0.6,1.5 1.3,2.7 1.6,2.7 1.5,0 6.5,-3.2 6.5,-4.1 0,-0.5 1.2,-0.8 2.7,-0.7 2,0.2 2.8,-0.2 3.1,-1.6 0.3,-1.5 0,-1.8 -1.7,-1.3 -1.9,0.4 -2.1,0.1 -2.1,-3.2 0,-2.9 -0.7,-4.4 -3.1,-6.7 -3.9,-3.7 -6.1,-8.8 -5.2,-12.2 0.5,-2.1 0.3,-2.4 -1.1,-1.9 -1.4,0.6 -1.5,0.3 -0.6,-1.3 0.8,-1.4 0.8,-3.2 0,-5.8 -0.5,-2 -1,-5.7 -1,-8.2 0,-3.2 -0.7,-5.6 -2.5,-8.2 -1.4,-2 -2.5,-4.5 -2.5,-5.5 0,-2 -4.6,-11 -9.7,-18.9 -7.1,-11.1 -8.3,-13.3 -8.3,-15.3 0,-1.2 -0.4,-2 -0.9,-1.7 -0.4,0.3 -1.9,-0.6 -3.2,-2.1 -1.8,-2 -2,-2.5 -0.6,-2 2.6,1 2,-1.1 -1.3,-4.5 -1.6,-1.6 -3,-3.3 -3,-3.8 0,-0.5 -1.1,-2.1 -2.3,-3.7 -3.2,-3.8 -10.9,-15.2 -12.7,-18.6 -0.7,-1.5 -2.9,-4.5 -4.7,-6.6 -1.8,-2.1 -2.9,-4.1 -2.5,-4.5 0.3,-0.4 0.2,-1 -0.3,-1.4 -1.4,-1 -4.8,-6 -6.9,-10.1 -1.7,-3.3 -3.3,-8.2 -6.1,-19.1 -2.2,-8.7 -5.2,-14.9 -8.7,-17.8 -1.8,-1.5 -4.3,-3.7 -5.6,-4.9 -1.2,-1.3 -3.1,-2.7 -4.3,-3.3 -1.1,-0.6 -1.7,-1.5 -1.3,-2.1 0.3,-0.5 0,-1.7 -0.7,-2.5 -1.4,-1.7 -0.8,-2.6 2.3,-2.9 1.3,-0.1 2.7,-0.3 3.3,-0.4 0.5,0 0.4,-0.6 -0.3,-1.3 -0.7,-0.7 -1.2,-1.5 -1.2,-1.9 0,-0.8 8.1,-4.9 9.7,-4.9 1.6,0 2.4,-2.8 1,-3.3 -0.9,-0.3 -0.8,-0.8 0.2,-2.1 0.8,-0.9 2,-1.5 2.8,-1.2 0.8,0.3 1.6,-0.1 2,-0.9 0.5,-1.3 0.7,-1.3 1.9,0.2 0.7,1 1.4,2.7 1.4,3.8 0,1.2 1.3,2.6 3.3,3.6 4.3,2.2 10,0.6 10.5,-2.9 0.3,-2.1 0.1,-2.2 -3.8,-1.6 -4.1,0.7 -4.2,0.6 -3.5,-1.7 0.4,-1.3 1.4,-3.1 2.2,-4 1.1,-1.4 1.2,-1.8 0.1,-2.3 -0.9,-0.4 -1,-0.8 -0.1,-1.2 2.6,-1.2 5.4,-4.4 4.8,-5.4 -0.4,-0.6 -0.4,-2.2 -0.1,-3.5 0.4,-1.7 1.1,-2.2 2.5,-1.8 1.6,0.4 1.9,0.1 1.4,-1.5 -0.5,-2 1.8,-7.4 4.5,-10.5 0.8,-0.9 1.2,-2 0.9,-2.3 -0.6,-0.6 6.6,-9.9 17.1,-22.3 2,-2.4 3.6,-4.7 3.4,-5.2 -0.1,-0.5 0.5,-1.2 1.3,-1.5 0.8,-0.4 1.5,-1.2 1.5,-1.8 0,-0.7 1.1,-2.3 2.4,-3.6 1.4,-1.2 2.8,-3.7 3.2,-5.4 0.4,-1.7 1.5,-3.7 2.5,-4.4 1.1,-0.7 1.9,-2 1.9,-2.8 0,-0.8 0.7,-1.7 1.5,-2.1 0.9,-0.3 2.3,-2 3.2,-3.7 2.3,-4.4 8.3,-11.6 9.7,-11.6 0.7,0 2.7,-2.9 4.5,-6.5 1.8,-3.6 4.3,-7.3 5.5,-8.3 1.3,-0.9 2.6,-3 3,-4.5 0.8,-3.5 4.6,-5.1 8.1,-3.5 1.3,0.6 2.2,1.4 2,1.8 -0.2,0.4 0.6,0.5 2,0.2 3.1,-0.5 3.5,-2.9 1.3,-6.8 -1.6,-2.8 -1.7,-3.3 -0.3,-4.4 1.7,-1.4 7,-1.8 9.8,-0.7 1.2,0.4 1.6,0.3 1.1,-0.4 -0.3,-0.6 -0.8,-2.9 -0.9,-5 -0.4,-4.3 1.4,-6.9 6.8,-10.4 3.3,-2.1 3.6,-6.7 0.7,-10.5 -1.1,-1.4 -2,-3.2 -2,-4.1 0,-0.9 -0.7,-2.2 -1.5,-2.9 -0.8,-0.7 -1.5,-1.9 -1.5,-2.7 0,-1.2 0.7,-1.4 3,-0.9 2.8,0.5 3.1,0.3 3.7,-2.4 0.3,-1.7 1,-3 1.5,-3 0.6,0 0.5,-0.7 -0.2,-1.5 -1,-1.2 -0.9,-1.5 0.6,-1.5 1.5,0 1.6,-0.2 0.5,-0.9 -0.7,-0.5 -1.1,-1.4 -0.7,-2 0.4,-0.6 -0.5,-1.3 -2.1,-1.7 -1.5,-0.4 -3.5,-1.2 -4.3,-1.9 -3.1,-2.5 -8.7,-2.5 -13.7,0.1 -2.6,1.3 -5.3,2.4 -5.9,2.4 -0.6,0 -1.7,0.7 -2.4,1.5 -0.7,0.8 -3,2 -5.1,2.5 -2.1,0.6 -5.1,2.1 -6.6,3.4 -3.8,3.2 -14.4,4.2 -16.1,1.6 -0.7,-1.2 -0.7,-2.1 0,-2.8 0.6,-0.6 -0.6,-0.8 -3.9,-0.5 -5.5,0.6 -12.2,4.2 -17.2,9.2 -1.9,1.8 -5.3,4.2 -7.7,5.2 -2.3,1.1 -4.4,2.6 -4.8,3.4 -0.3,0.8 -1.2,1.5 -2,1.5 -0.8,0 -7.5,2.9 -14.9,6.5 -7.4,3.6 -14,6.5 -14.6,6.5 -0.6,0 -1.9,0.4 -2.9,0.9 -0.9,0.6 -5.1,2.3 -9.2,3.9 -4.9,1.9 -7.5,3.4 -7.5,4.5 0,0.8 -0.4,1.9 -0.8,2.3 -0.4,0.4 -0.7,0 -0.7,-1 0,-1.5 -0.2,-1.5 -3.2,0 -1.8,0.9 -3.7,2.3 -4.1,3 -0.4,0.8 -1.3,1.4 -1.9,1.4 -1,0 -8.2,3.2 -19.3,8.6 -2.7,1.3 -6.3,2.7 -8,3 -1.6,0.4 -3.6,1.1 -4.2,1.6 -1.7,1.4 -10.6,0.1 -26.6,-3.8 -1.6,-0.4 -3.3,-0.1 -4.2,0.6 -1.7,1.4 -2,5.6 -0.4,6.5 0.5,0.4 1.4,1.8 1.9,3.1 0.6,1.4 2,2.9 3.2,3.4 1.3,0.5 1.7,0.9 1.1,0.9 -0.7,0.1 -1.3,0.8 -1.3,1.6 0,0.8 -0.4,1.5 -1,1.5 -0.5,0 -1,-0.9 -1,-2.1 0,-1.4 -0.5,-1.9 -1.4,-1.6 -1.7,0.7 -4,-1.8 -3.1,-3.3 0.3,-0.5 0.2,-1 -0.4,-1 -0.5,0 -1.3,0.4 -1.6,1 -1,1.6 -2.4,1.2 -3.6,-1.3 -0.9,-1.8 -0.9,-2 0.2,-1 2,1.9 2.8,1.6 2.2,-1 -0.7,-2.8 -3.3,-5.8 -4.4,-5.1 -0.5,0.3 -0.6,-0.2 -0.3,-1 0.4,-1.1 0,-1.6 -1,-1.6 -0.9,0 -1.6,0.4 -1.6,1 0,0.5 -0.7,1 -1.6,1 -1.4,0 -1.4,-0.1 0,-1.6 2.4,-2.3 2.1,-7.4 -0.3,-7.4 -1.1,0 -2.3,-0.4 -2.6,-1 -0.4,-0.6 0.1,-0.7 1.2,-0.4 1.3,0.4 1.1,0 -0.7,-1.6 -1.4,-1.2 -2.5,-2.7 -2.5,-3.4 -0.2,-2.5 -1.7,-4.4 -3.2,-3.9 -1.2,0.5 -1.4,0.1 -0.8,-1.7 0.6,-1.8 0.2,-2.7 -1.6,-4.1 -2,-1.5 -2.1,-1.9 -0.6,-1.9 2.2,0 2.1,-0.9 -0.3,-4 -1.1,-1.4 -2,-3.1 -2,-3.8 0,-0.7 -1.5,-1.2 -3.9,-1.2 -2.2,0 -4.3,-0.5 -4.7,-1.1 -0.4,-0.8 0,-0.9 1.5,-0.4 1.5,0.5 2.1,0.2 2.1,-0.9 0,-0.9 0.5,-1.6 1.1,-1.6 0.8,0 0.8,-0.4 0,-1.4 -1.2,-1.4 -5.1,-1 -5.1,0.5 0,0.5 -0.8,0.9 -1.7,0.9 -1.5,0 -1.3,-0.4 0.8,-2.3 1.4,-1.2 2.6,-3 2.6,-4 0,-1.9 -0.8,-2.2 -2.3,-0.7 -1.6,1.6 -4.9,-1.3 -4.1,-3.5 0.4,-1 1.3,-1.5 2.2,-1.1 1.1,0.4 1.5,-0.2 1.5,-1.9 0,-1.6 -0.6,-2.5 -1.5,-2.5 -1.8,0 -1.9,-1.2 -0.3,-2.8 0.9,-0.9 0.8,-1.2 -0.4,-1.2 -2.5,0 -5.4,-5 -5.7,-9.5 -0.1,-2.1 -0.7,-4.5 -1.2,-5.2 -0.6,-0.6 -0.8,-1.7 -0.4,-2.2 0.3,-0.6 -0.1,-2.5 -0.9,-4.3 -1.8,-4.3 -2.9,-18.1 -1.5,-19.5 0.8,-0.8 0.5,-1.4 -1,-2.2 -1.2,-0.7 -2.1,-2.1 -2.1,-3.2 0,-1.1 -0.7,-3.3 -1.5,-4.9 -0.9,-1.7 -1.5,-3.2 -1.5,-3.5 0.1,-1.5 -3.5,-5.5 -5,-5.5 -2.2,0 -3.7,-1.8 -4.2,-5 -0.1,-1.4 -0.6,-2.7 -0.9,-3 -0.3,-0.3 -0.9,-2.7 -1.3,-5.4 -0.7,-4.6 -0.7,-4.8 0.9,-3.3 2.2,2.3 3.4,2.1 2.8,-0.3 -0.4,-1.4 0,-2 1.2,-2 2.8,0 1,-2.5 -2.1,-2.8 -4.1,-0.5 -5.1,-1.8 -3,-4.1 1.7,-1.9 1.7,-2 -0.6,-2.3 -1.3,-0.2 -2.3,-1 -2.3,-1.8 -0.1,-3.6 -1.8,-8 -3.1,-8 -1.1,0 -1.3,-0.7 -0.8,-2.8 0.8,-3.3 2.2,-5.2 3.9,-5.2 0.7,0 1.7,-0.6 2.3,-1.3 1.3,-1.5 -1.6,-5.4 -3.8,-4.9 -0.9,0.1 -2.9,-1.1 -4.5,-2.8 -1.6,-1.6 -3.1,-2.9 -3.4,-2.9 -0.3,0.1 -1.5,0.4 -2.6,0.6"
     id="path1" />
</svg>
